<?xml version="1.0" standalone="no"?>
<!DOCTYPE svg PUBLIC "-//W3C//DTD SVG 20010904//EN"
 "http://www.w3.org/TR/2001/REC-SVG-20010904/DTD/svg10.dtd">
<svg version="1.0" xmlns="http://www.w3.org/2000/svg"
 width="512.000000pt" height="512.000000pt" viewBox="0 0 512.000000 512.000000"
 preserveAspectRatio="xMidYMid meet">

<g transform="translate(0.000000,512.000000) scale(0.100000,-0.100000)"
fill="#000000" stroke="none">
<path d="M2487 5108 c-47 -17 -2160 -1178 -2197 -1207 -19 -15 -46 -48 -60
-72 l-25 -44 0 -1225 0 -1225 25 -44 c14 -24 41 -57 60 -72 41 -32 2153 -1191
2201 -1208 41 -14 97 -14 140 1 49 17 2157 1174 2199 1207 19 15 46 48 60 72
l25 44 0 1225 0 1225 -25 44 c-14 24 -41 57 -60 72 -42 33 -2150 1190 -2199
1207 -40 14 -105 14 -144 0z m333 -279 c132 -73 239 -134 236 -136 -6 -7 -489
-273 -495 -273 -2 0 -117 62 -253 137 -208 114 -246 138 -231 147 171 100 463
255 481 255 12 1 130 -58 262 -130z m-675 -365 c136 -75 243 -140 238 -144
-13 -12 -611 -340 -619 -340 -13 0 -504 273 -499 278 8 8 620 342 627 342 4 0
118 -61 253 -136z m1404 -35 c172 -94 310 -173 308 -175 -9 -9 -491 -274 -499
-274 -17 0 -623 341 -619 348 6 9 473 270 487 271 6 1 151 -76 323 -170z
m-1465 -814 c168 -93 302 -173 298 -176 -8 -8 -603 -339 -614 -342 -11 -3
-627 338 -625 346 3 11 610 347 623 344 6 -1 149 -78 318 -172z m1587 4 c170
-94 309 -174 309 -177 0 -4 -140 -84 -311 -178 l-311 -171 -307 169 c-168 94
-309 173 -313 177 -7 6 594 347 616 350 4 1 147 -76 317 -170z m-3045 -80
l254 -140 0 -309 0 -308 -257 142 -258 143 -3 306 c-1 169 0 307 4 307 3 0
120 -63 260 -141z m4132 -165 l-3 -307 -110 -61 c-61 -34 -177 -99 -258 -143
l-147 -82 0 309 0 308 253 141 c138 77 255 140 260 140 4 1 6 -137 5 -305z
m-1873 -202 l307 -170 -44 -25 c-23 -14 -165 -93 -315 -175 l-272 -151 -218
121 c-120 66 -262 145 -316 175 l-98 55 313 174 c172 95 318 172 324 169 7 -2
150 -80 319 -173z m-1452 -79 l247 -137 0 -309 0 -309 -42 25 c-24 13 -168 93
-320 177 l-278 153 0 309 0 309 73 -41 c39 -22 183 -102 320 -177z m2647 -92
l0 -309 -267 -147 c-148 -82 -292 -161 -320 -177 l-53 -30 0 309 0 308 318
177 c174 97 318 177 320 177 1 1 2 -138 2 -308z m-3454 -262 l254 -141 0 -308
0 -308 -257 143 -258 142 -3 307 c-1 168 1 306 4 306 4 0 121 -63 260 -141z
m4132 -165 l-3 -307 -110 -61 c-61 -34 -177 -99 -258 -143 l-147 -82 0 309 0
308 253 141 c138 77 255 140 260 140 4 1 6 -137 5 -305z m-2592 114 l313 -173
1 -307 c0 -170 -2 -308 -3 -308 -2 0 -145 78 -318 174 l-314 174 -3 306 c-1
168 1 306 4 306 4 0 148 -78 320 -172z m0 -800 l313 -173 1 -307 c0 -170 -2
-308 -3 -308 -2 0 -145 78 -318 174 l-314 174 -3 306 c-1 168 1 306 4 306 4 0
148 -78 320 -172z m1112 -134 l-3 -306 -314 -174 c-173 -96 -316 -174 -318
-174 -1 0 -3 138 -3 308 l1 307 312 172 c172 95 315 172 320 173 4 0 6 -138 5
-306z m-1885 -239 l287 -159 0 -362 0 -362 -320 176 -320 175 0 365 0 364 33
-19 c17 -11 161 -91 320 -178z m2687 -169 l0 -364 -82 -45 c-46 -24 -190 -103
-320 -175 l-238 -130 0 362 0 362 318 176 c174 97 318 177 320 177 1 1 2 -163
2 -363z m-1914 -258 l313 -173 1 -357 c0 -197 -3 -358 -6 -358 -4 0 -148 77
-320 172 l-314 172 0 358 c0 197 3 358 7 358 3 0 147 -78 319 -172z m1114
-186 l0 -358 -313 -172 c-173 -95 -317 -172 -320 -172 -4 0 -7 161 -7 358 l1
357 312 172 c172 95 315 172 320 173 4 0 7 -161 7 -358z"/>
</g>
</svg>
